<svg id="INDONESIA" height="512" viewBox="0 0 512 512" width="512" xmlns="http://www.w3.org/2000/svg"><path d="m504.3 235.47c-7.07-18.93-23.29-34.73-43.19-41.91-37.49-13.63-81.4-9.94-128.13 9.59 10.34 15.03 16.4 33.22 16.4 52.8 0 18.21-5.24 35.21-14.29 49.59 33.64 11.82 57.61 42.65 60.48 78.81 0 0 .21 2.21.16 6.97-.06 5.7 1.63 11.33 4.83 16.11 8.21 12.26 24.13 15.94 36.66 8.33.17-.1.35-.21.52-.32 50.09-36.34 92.09-114.29 66.57-179.97z" fill="#4193d2"/><path d="m162.58 255.95c0-18.18 5.23-35.16 14.25-49.53-33.59-11.84-57.52-42.65-60.39-78.78 0 0-.21-2.21-.16-6.97.06-5.7-1.63-11.33-4.83-16.11-8.21-12.26-24.13-15.94-36.66-8.33-.17.1-.35.21-.52.32-50.1 36.34-92.09 114.3-66.57 179.98 7.07 18.93 23.29 34.73 43.19 41.91 37.49 13.64 81.41 9.94 128.15-9.6-10.38-15.05-16.46-33.27-16.46-52.89z" fill="#48a4df"/><path d="m415.73 74.79c-.11-.17-.21-.35-.32-.52-36.33-50.1-114.28-92.09-179.97-66.57-18.93 7.07-34.73 23.29-41.91 43.19-13.63 37.48-9.94 81.38 9.58 128.1 15.04-10.36 33.25-16.44 52.86-16.44 18.2 0 35.2 5.24 49.57 14.28 11.84-33.6 42.65-57.52 78.78-60.39 0 0 2.21-.21 6.97-.16 5.7.06 11.33-1.63 16.11-4.83 12.26-8.21 15.94-24.13 8.33-36.66z" fill="#48a4df"/><path d="m255.98 349.35c-18.19 0-35.18-5.23-49.55-14.26-11.82 33.64-42.65 57.6-78.81 60.47 0 0-2.21.21-6.97.16-5.7-.06-11.33 1.63-16.11 4.83-12.26 8.21-15.94 24.13-8.33 36.66.11.17.21.35.32.52 36.34 50.09 114.29 92.09 179.97 66.57 18.93-7.07 34.73-23.29 41.91-43.19 13.64-37.5 9.93-81.43-9.61-128.18-15.04 10.35-33.24 16.42-52.83 16.42z" fill="#4193d2"/><circle cx="255.98" cy="255.91" fill="#34344f" r="93.36"/><circle cx="255.98" cy="255.95" fill="#4193d2" r="65.4"/><path d="m304.01 211.58c-11.95-12.93-29.04-21.03-48.03-21.03-36.12 0-65.4 29.28-65.4 65.4 0 19.26 8.32 36.56 21.57 48.53 38.81-21.49 70.8-53.82 91.86-92.9z" fill="#48a4df"/></svg>