<svg id="svg31911" height="512" viewBox="0 0 16.933333 16.933334" width="512" xmlns="http://www.w3.org/2000/svg" xmlns:svg="http://www.w3.org/2000/svg"><g id="layer1" transform="translate(0 -280.067)"><path id="path3215" d="m2.3554124 280.59686a.26460982.26460982 0 0 0 -.162264.45113l1.7756022 1.77354v.57619l-.6387206.63872h-.5741252l-1.7756022-1.7756a.26460982.26460982 0 0 0 -.4511353.18758v2.11719a.26460982.26460982 0 0 0 .078031.18552l1.3223999 1.32395a.26460982.26460982 0 0 0 .1875855.0765h2.0060789l6.7241374 6.72463v2.00763a.26460982.26460982 0 0 0 .07855.18759l1.321883 1.3224a.26460982.26460982 0 0 0 .187586.078h2.117181a.26460982.26460982 0 0 0 .185518-.4532l-1.773018-1.77351v-.57412l.638204-.64079h.574642l1.775085 1.7756a.26460982.26460982 0 0 0 .451136-.18758v-2.11512a.26460982.26460982 0 0 0 -.07803-.18759l-1.3224-1.32446a.26460982.26460982 0 0 0 -.187585-.076h-2.005563l-6.7246534-6.72465v-2.00763a.26460982.26460982 0 0 0 -.078032-.18552l-1.3223995-1.32447a.26460982.26460982 0 0 0 -.1875854-.076h-2.1171848a.26460982.26460982 0 0 0 -.025322 0z" fill="#33658a" font-variant-ligatures="normal" font-variant-position="normal" font-variant-caps="normal" font-variant-numeric="normal" font-variant-alternates="normal" font-feature-settings="normal" text-indent="0" text-align="start" text-decoration-line="none" text-decoration-style="solid" text-decoration-color="#000000" text-transform="none" text-orientation="mixed" white-space="normal" shape-padding="0" isolation="auto" mix-blend-mode="normal" solid-color="#000000" solid-opacity="1" vector-effect="none"/><path id="path3198" d="m15.316407 280.59673c-.03134.004-.06176.0129-.08984.0273l-2.644531 1.32227c-.08962.0447-.146313.13618-.146484.23633v.94922l-6.53711 6.53711 1.4316406 1.43359 6.5371104-6.53711h.949218c.100149-.00017.19162-.0569.236328-.14648l1.324219-2.64649c.05026-.10193.02982-.22457-.05078-.30469l-.792974-.79491c-.0569-.0571-.136703-.0851-.216797-.0762z" fill="#dbe9ee" font-variant-ligatures="normal" font-variant-position="normal" font-variant-caps="normal" font-variant-numeric="normal" font-variant-alternates="normal" font-feature-settings="normal" text-indent="0" text-align="start" text-decoration-line="none" text-decoration-style="solid" text-decoration-color="#000000" text-transform="none" text-orientation="mixed" white-space="normal" shape-padding="0" isolation="auto" mix-blend-mode="normal" solid-color="#000000" solid-opacity="1" vector-effect="none"/><path id="path3202" d="m5.5527351 289.06158a.26460982.26460982 0 0 0 -.1835939.0781l-4.2773437 4.27734c-.7174673.71747-.7594098 1.86364-.066406 2.55664.6930041.69301 1.8391737.65106 2.5566406-.0664l4.2773434-4.27734a.26460982.26460982 0 0 0 0-.37305l-2.1152342-2.11719a.26460982.26460982 0 0 0 -.1914062-.0781z" fill="#33b9ef" font-variant-ligatures="normal" font-variant-position="normal" font-variant-caps="normal" font-variant-numeric="normal" font-variant-alternates="normal" font-feature-settings="normal" text-indent="0" text-align="start" text-decoration-line="none" text-decoration-style="solid" text-decoration-color="#000000" text-transform="none" text-orientation="mixed" white-space="normal" shape-padding="0" isolation="auto" mix-blend-mode="normal" solid-color="#000000" solid-opacity="1" vector-effect="none"/><path id="path3204" d="m4.575432 289.93376 2.4897704 2.48977.7942668-.79375a.26460982.26460982 0 0 0 0-.37311l-2.1151163-2.11718a.26460982.26460982 0 0 0 -.1917197-.078.26460982.26460982 0 0 0 -.1834512.078z" fill="#2fa9da" font-variant-ligatures="normal" font-variant-position="normal" font-variant-caps="normal" font-variant-numeric="normal" font-variant-alternates="normal" font-feature-settings="normal" text-indent="0" text-align="start" text-decoration-line="none" text-decoration-style="solid" text-decoration-color="#000000" text-transform="none" text-orientation="mixed" white-space="normal" shape-padding="0" isolation="auto" mix-blend-mode="normal" solid-color="#000000" solid-opacity="1" vector-effect="none"/></g></svg>