<svg id="Layer_1" enable-background="new 0 0 512 512" viewBox="0 0 512 512" xmlns="http://www.w3.org/2000/svg"><g><g><g clip-rule="evenodd" fill-rule="evenodd"><circle cx="256" cy="192.77" fill="#7ed0ed" r="183.77"/><path d="m256 107.953c46.844 0 84.818 37.974 84.818 84.817h65.968c0-83.277-67.509-150.786-150.786-150.786s-150.786 67.509-150.786 150.786h65.969c-.001-46.843 37.973-84.817 84.817-84.817z" fill="#64b5f6"/><path d="m256 41.985c-41.638 0-79.335 16.877-106.622 44.164l46.647 46.647c15.349-15.349 36.553-24.842 59.975-24.842s44.626 9.493 59.975 24.842l46.646-46.646c-27.286-27.288-64.983-44.165-106.621-44.165z" fill="#ffda2d"/><path d="m207.752 240.406h96.497c3.3 0 6 2.7 6 5.999v20.878c0 3.3-2.7 6-6 6h-96.497c-3.3 0-6-2.7-6-6v-20.878c0-3.299 2.7-5.999 6-5.999z" fill="#e6f8ff"/><path d="m315.975 132.795c15.349 15.349 24.842 36.553 24.842 59.975h65.968c0-41.638-16.877-79.335-44.164-106.621z" fill="#7789a4"/><path d="m362.622 86.149c-27.287-27.287-64.984-44.164-106.622-44.164v65.969c23.422 0 44.626 9.493 59.975 24.842s24.842 36.553 24.842 59.975h65.968c.001-41.639-16.877-79.335-44.163-106.622z" fill="#72d561"/><path d="m315.975 132.795c15.349 15.349 24.842 36.553 24.842 59.975h65.968c0-41.638-16.877-79.335-44.164-106.621z" fill="#fc685b"/><circle cx="256" cy="192.77" fill="#64b5f6" r="19.975"/></g><g><ellipse clip-rule="evenodd" cx="256" cy="405.223" fill="#ffda2d" fill-rule="evenodd" rx="97.777" ry="97.777" transform="matrix(.021 -1 1 .021 -154.466 652.731)"/></g><path clip-rule="evenodd" d="m461.528 300.589-16.565 65.458h44.469l-70.526 87.352 16.564-65.458h-44.469zm-411.057 0 16.565 65.458h-44.468l70.527 87.352-16.565-65.459h44.469z" fill="#ffda2d" fill-rule="evenodd"/></g><path clip-rule="evenodd" d="m76.532 379.941c-2.472 0-4.801 1.137-6.311 3.089-1.519 1.939-2.052 4.481-1.439 6.867l7.598 30.063-37.07-45.91h27.732c2.457 0 4.787-1.141 6.306-3.089 1.523-1.953 2.052-4.48 1.443-6.881l-7.612-30.063 37.081 45.924zm-19.833-84.382c-2.358-2.919-6.438-3.811-9.81-2.132-3.358 1.684-5.098 5.48-4.179 9.122l14.05 55.498h-34.189c-3.08 0-5.891 1.773-7.221 4.551-1.33 2.783-.939 6.079.99 8.471l70.53 87.353c1.561 1.938 3.872 2.976 6.23 2.976 1.212 0 2.429-.278 3.571-.849 3.358-1.679 5.098-5.471 4.179-9.112l-14.041-55.498h34.194c3.08 0 5.886-1.769 7.216-4.551 1.33-2.778.943-6.079-1-8.48zm378.922 124.401 7.608-30.063c.604-2.386.071-4.928-1.448-6.867-1.509-1.953-3.839-3.089-6.31-3.089h-27.728l37.066-45.924-7.598 30.063c-.613 2.401-.08 4.929 1.439 6.881 1.519 1.948 3.853 3.089 6.311 3.089h27.728zm61.031-57.362c-1.33-2.778-4.141-4.551-7.221-4.551h-34.19l14.051-55.498c.92-3.641-.821-7.438-4.184-9.122-3.368-1.679-7.438-.788-9.81 2.132l-70.52 87.349c-1.938 2.401-2.316 5.702-.995 8.48 1.33 2.783 4.136 4.551 7.216 4.551h34.189l-14.036 55.498c-.925 3.641.821 7.433 4.178 9.112 1.137.571 2.358.849 3.571.849 2.358 0 4.669-1.038 6.23-2.976l70.529-87.353c1.931-2.391 2.317-5.688.992-8.471zm-240.651 91.532c-3.212 0-5.829-2.622-5.829-5.829 0-3.212 2.618-5.834 5.829-5.834 3.207 0 5.829 2.622 5.829 5.834.001 3.207-2.622 5.829-5.829 5.829zm0-27.662c-12.041 0-21.832 9.801-21.832 21.833 0 12.041 9.791 21.828 21.832 21.828s21.832-9.787 21.832-21.828c.001-12.032-9.791-21.833-21.832-21.833zm38.222-10.48c3.127 3.132 3.127 8.192 0 11.31-1.561 1.571-3.613 2.354-5.66 2.354-2.042 0-4.094-.783-5.655-2.354-7.188-7.178-16.748-11.14-26.907-11.14s-19.719 3.962-26.912 11.14c-3.118 3.132-8.188 3.132-11.31 0-3.132-3.118-3.132-8.178 0-11.31 10.211-10.211 23.78-15.828 38.222-15.828 14.437 0 28.011 5.617 38.222 15.828zm18.606-18.61c-31.341-31.327-82.32-31.327-113.661 0-3.118 3.132-3.118 8.192 0 11.319 3.122 3.122 8.192 3.122 11.31 0 25.101-25.101 65.94-25.101 91.041 0 1.561 1.561 3.613 2.344 5.65 2.344 2.052 0 4.099-.783 5.66-2.344 3.132-3.127 3.132-8.188 0-11.319zm18.611-18.607c3.122 3.127 3.122 8.188 0 11.319-1.561 1.556-3.608 2.339-5.66 2.339s-4.089-.783-5.65-2.339c-35.359-35.364-92.899-35.364-128.249 0-3.132 3.117-8.192 3.117-11.319 0-3.122-3.132-3.122-8.192 0-11.319 41.599-41.59 109.279-41.59 150.878 0zm-29.19-113.491h-92.498v-16.871h92.498zm8-32.869h-108.497c-4.419 0-8.004 3.58-8.004 7.999v32.869c0 4.419 3.584 7.999 8.004 7.999h108.497c4.419 0 7.999-3.58 7.999-7.999v-32.869c0-4.419-3.58-7.999-7.999-7.999zm-54.249-31.162c-4.669 0-8.48-3.811-8.48-8.48s3.811-8.48 8.48-8.48 8.48 3.811 8.48 8.48c0 4.67-3.811 8.48-8.48 8.48zm47.198-55.682c-3.127-3.117-8.188-3.117-11.32 0l-25.181 25.19c-3.235-1.58-6.867-2.467-10.697-2.467-13.499 0-24.483 10.98-24.483 24.478 0 13.499 10.984 24.478 24.483 24.478 13.498 0 24.478-10.98 24.478-24.478 0-3.83-.887-7.461-2.471-10.701l25.191-25.181c3.122-3.126 3.122-8.187 0-11.319zm-139.668 39.203h-50.093c1.854-33.35 15.211-63.681 36.152-87.089l35.41 35.397c-11.989 14.244-19.79 32.1-21.469 51.692zm184.95 0c-1.689-19.592-9.49-37.462-21.479-51.692l35.406-35.397c20.941 23.408 34.303 53.739 36.152 87.089zm-84.481-84.462c19.592 1.679 37.472 9.461 51.701 21.45l35.397-35.402c-23.407-20.935-53.748-34.287-87.098-36.146zm-103.101-13.951 35.402 35.402c14.229-11.989 32.109-19.771 51.701-21.45v-50.099c-33.355 1.859-63.691 15.211-87.103 36.147zm95.102 29.591c42.358 0 76.821 34.463 76.821 76.821 0 4.419 3.575 7.999 7.999 7.999h65.968c4.41 0 7.999-3.58 7.999-7.999 0-87.551-71.237-158.778-158.788-158.778s-158.792 71.227-158.792 158.778c0 4.419 3.594 7.999 8.004 7.999h65.969c4.419 0 7.999-3.58 7.999-7.999 0-42.358 34.458-76.821 76.821-76.821zm0 379.05c49.499 0 89.782-40.269 89.782-89.782 0-49.494-40.283-89.768-89.782-89.768s-89.782 40.273-89.782 89.768c0 49.513 40.283 89.782 89.782 89.782zm-175.772-302.229c0 63.488 33.76 121.321 88.579 152.642 19.083-27.742 51.051-45.961 87.193-45.961s68.11 18.22 87.188 45.961c54.819-31.322 88.584-89.155 88.584-152.642 0-96.923-78.854-175.772-175.772-175.772-96.923 0-175.772 78.85-175.772 175.772zm367.542 0c0-105.742-86.027-191.77-191.77-191.77-105.742 0-191.77 86.028-191.77 191.77 0 69.228 36.779 132.291 96.517 166.481-6.74 13.909-10.527 29.511-10.527 45.966 0 58.333 47.447 105.785 105.78 105.785 58.328 0 105.78-47.452 105.78-105.785 0-16.456-3.792-32.057-10.532-45.966 59.743-34.19 96.522-97.253 96.522-166.481z" fill-rule="evenodd"/></g></svg>