<?xml version="1.0" encoding="UTF-8"?>
<svg xmlns="http://www.w3.org/2000/svg" id="flat" viewBox="0 0 512 512" width="512" height="512"><title>Thermometer-sensor-internet-smart-temperature-phone-control</title><path d="M395.235,56.575a8,8,0,0,0-5.946,14.854c25.7,10.287,42.972,39.453,42.972,72.572s-17.269,62.285-42.972,72.574a8,8,0,1,0,5.945,14.853c31.717-12.7,53.027-47.83,53.027-87.427S426.952,69.272,395.235,56.575Z" style="fill:#ed553b"/><path d="M379.361,80.626a8,8,0,1,0-6.2,14.75c16.208,6.809,27.1,26.355,27.1,48.625s-10.89,41.812-27.1,48.625a8,8,0,1,0,6.2,14.75c22.072-9.277,36.9-34.746,36.9-63.375S401.433,89.905,379.361,80.626Z" style="fill:#ed553b"/><path d="M353.017,179.395a7.993,7.993,0,0,0,10.638,3.852c12.571-5.888,21.017-21.659,21.017-39.245s-8.445-33.355-21.018-39.245a8,8,0,1,0-6.786,14.489c6.95,3.257,11.8,13.436,11.8,24.755s-4.853,21.5-11.8,24.755A8,8,0,0,0,353.017,179.395Z" style="fill:#ed553b"/><circle cx="344" cy="144.002" r="8" transform="translate(-1.069 285.422) rotate(-45)" style="fill:#ed553b"/><path d="M117.026,231.429a8,8,0,0,0,5.946-14.854C97.27,206.288,80,177.122,80,144s17.269-62.285,42.972-72.574a8,8,0,1,0-5.945-14.853C85.31,69.271,64,104.406,64,144S85.308,218.732,117.026,231.429Z" style="fill:#ed553b"/><path d="M132.9,207.378a8,8,0,1,0,6.2-14.75C122.892,185.818,112,166.272,112,144s10.89-41.812,27.1-48.625a8,8,0,1,0-6.2-14.75C110.828,89.9,96,115.373,96,144S110.828,198.1,132.9,207.378Z" style="fill:#ed553b"/><path d="M159.244,108.609a7.993,7.993,0,0,0-10.638-3.852c-12.571,5.888-21.017,21.659-21.017,39.245s8.445,33.355,21.018,39.245a8,8,0,1,0,6.786-14.489c-6.95-3.257-11.8-13.436-11.8-24.755s4.853-21.5,11.8-24.755A8,8,0,0,0,159.244,108.609Z" style="fill:#ed553b"/><circle cx="168.261" cy="144.002" r="8" transform="translate(-52.542 161.156) rotate(-45)" style="fill:#ed553b"/><path d="M296,330.729V69.644A37.644,37.644,0,0,0,258.356,32h-4.712A37.644,37.644,0,0,0,216,69.644V330.729a80,80,0,1,0,80,0Z" style="fill:#f6d55b"/><circle cx="256" cy="400" r="40" style="fill:#ed553b"/><path d="M296,144v16H264a8,8,0,0,1,0-16Z" style="fill:#3cafa3"/><path d="M296,184v16H264a8,8,0,0,1,0-16Z" style="fill:#3cafa3"/><path d="M296,224v16H264a8,8,0,0,1,0-16Z" style="fill:#3cafa3"/><path d="M296,264v16H264a8,8,0,0,1,0-16Z" style="fill:#3cafa3"/><path d="M256,360V32h-2.356A37.644,37.644,0,0,0,216,69.644V330.729a79.97,79.97,0,0,0-10.031,131.676C262.019,420.331,256,360,256,360Z" style="fill:#fff;opacity:0.30000000000000004"/></svg>
